<?xml version="1.0" encoding="utf-8"?>
<!-- Generator: Adobe Illustrator 23.1.0, SVG Export Plug-In . SVG Version: 6.00 Build 0)  -->
<svg version="1.1" id="Camada_1" xmlns="http://www.w3.org/2000/svg" xmlns:xlink="http://www.w3.org/1999/xlink" x="0px" y="0px"
	 viewBox="0 0 165 156" style="enable-background:new 0 0 165 156;" xml:space="preserve">
<style type="text/css">
	.st0{fill:#DCDCBB;}
</style>
<g>
	<path class="st0" d="M85.9,141.6H77c-2.7,0-5-2.2-5-5V19.4c0-2.7,2.2-5,5-5h8.8c2.7,0,5,2.2,5,5v117.3
		C90.8,139.4,88.6,141.6,85.9,141.6z"/>
	<path class="st0" d="M18.5,80.4v-8.8c0-2.7,2.2-5,5-5h117.3c2.7,0,5,2.2,5,5v8.8c0,2.7-2.2,5-5,5H23.5
		C20.7,85.4,18.5,83.1,18.5,80.4z"/>
</g>
</svg>
