<?xml version="1.0" encoding="utf-8"?>
<!-- Generator: Adobe Illustrator 23.1.0, SVG Export Plug-In . SVG Version: 6.00 Build 0)  -->
<svg version="1.1" id="Camada_1" xmlns="http://www.w3.org/2000/svg" xmlns:xlink="http://www.w3.org/1999/xlink" x="0px" y="0px"
	 viewBox="0 0 169 188" style="enable-background:new 0 0 169 188;" xml:space="preserve">
<style type="text/css">
	.st0{fill:#DCDCBB;}
</style>
<path class="st0" d="M109.2,77.4v23.4l-41-22.6v27H50.3l-2-83.2H29.9l-2.8,82.9H12.8v70.6h145.4v-70.6L109.2,77.4z M47.4,152.1h-9.7
	v-9.7h9.7V152.1z M47.4,138h-9.7v-9.7h9.7V138z M60.9,152.1h-9.7v-9.7h9.7V152.1z M60.9,138h-9.7v-9.7h9.7V138z M83.1,152.1h-9.7
	v-9.7h9.7V152.1z M83.1,138h-9.7v-9.7h9.7V138z M97.1,152.1h-9.7v-9.7h9.7V152.1z M97.1,138h-9.7v-9.7h9.7V138z M119.1,152.1h-9.7
	v-9.7h9.7V152.1z M119.1,138h-9.7v-9.7h9.7V138z M132.9,152.1h-9.7v-9.7h9.7V152.1z M132.9,138h-9.7v-9.7h9.7V138z"/>
</svg>
