<?xml version="1.0" encoding="utf-8"?>
<!-- Generator: Adobe Illustrator 23.1.0, SVG Export Plug-In . SVG Version: 6.00 Build 0)  -->
<svg version="1.1" id="Camada_1" xmlns="http://www.w3.org/2000/svg" xmlns:xlink="http://www.w3.org/1999/xlink" x="0px" y="0px"
	 viewBox="0 0 141 162" style="enable-background:new 0 0 141 162;" xml:space="preserve">
<style type="text/css">
	.st0{fill:#E08424;}
</style>
<g>
	
		<image style="overflow:visible;opacity:0.8;enable-background:new    ;" width="210" height="209" xlink:href="3AB27976.png"  transform="matrix(1 0 0 1 -30 -31)">
	</image>
	<g>
		<path class="st0" d="M102.1,70.3c0.5-3.5-0.9-9.7-0.9-9.7l8.3-6.2l-6.2-10.4l-9.8,4.2c-3.1-3.7-7-5.6-7-5.6l1.1-10.9l-11.6-3.1
			l-3.8,10.1c-6.8-0.6-10.5,0.8-10.5,0.8l-6-8.3l-10.7,6.1l4.5,9.8c-3.7,2.9-5.8,7.7-5.8,7.7l-10.7-1.9L29.5,65l10,3.8
			C39.1,72.7,41,79,41,79l-8.4,6.8l6,10.1l9.8-4.4c4.6,4.8,7.9,5.8,7.9,5.8l-1.8,10.5l11.9,3.3l4.1-10.3c6.9,0.1,9.5-1.3,9.5-1.3
			l6.6,8.9l10.5-6.6L92.7,92c3.5-2.7,5.4-7.4,5.4-7.4l10.8,1.4l3.3-11.7L102.1,70.3z M71,86.7c-9.4,0-16.9-7.6-16.9-16.9
			S61.6,52.9,71,52.9s16.9,7.6,16.9,16.9S80.3,86.7,71,86.7z"/>
	</g>
</g>
</svg>
