<?xml version="1.0" encoding="utf-8"?>
<!-- Generator: Adobe Illustrator 23.1.0, SVG Export Plug-In . SVG Version: 6.00 Build 0)  -->
<svg version="1.1" id="Camada_1" xmlns="http://www.w3.org/2000/svg" xmlns:xlink="http://www.w3.org/1999/xlink" x="0px" y="0px"
	 viewBox="0 0 141 179" style="enable-background:new 0 0 141 179;" xml:space="preserve">
<style type="text/css">
	.st0{fill:#DCDCBB;}
</style>
<path class="st0" d="M107.9,21L14,39.2l25.4,131.2l93.9-18.2L107.9,21z M109.7,85.2c0.4-0.1,0.8,0.2,0.9,0.6
	c0.1,0.4-0.2,0.8-0.6,0.9l-66.2,13c-0.4,0.1-0.8-0.2-0.9-0.6c-0.1-0.4,0.2-0.8,0.6-0.9L109.7,85.2z M27.3,56.2
	c0-7.3,5.9-13.2,13.2-13.2s13.2,5.9,13.2,13.2c0,4.2-2,8-5,10.4h0l3.8,21.9l-7.5-5.8l-3.4,7.7L37,68.9h0
	C31.4,67.4,27.3,62.3,27.3,56.2z M37.1,106.2c-0.1-0.4,0.2-0.8,0.6-0.9l72.6-14.2c0.4-0.1,0.8,0.2,0.9,0.6c0.1,0.4-0.2,0.8-0.6,0.9
	L38,106.8C37.6,106.9,37.2,106.6,37.1,106.2z M38,111c-0.1-0.4,0.2-0.8,0.6-0.9l72.6-14.2c0.4-0.1,0.8,0.2,0.9,0.6
	c0.1,0.4-0.2,0.8-0.6,0.9l-72.6,14.2C38.5,111.7,38.1,111.4,38,111z M39.1,116.4c-0.1-0.4,0.2-0.8,0.6-0.9l72.6-14.2
	c0.4-0.1,0.8,0.2,0.9,0.6c0.1,0.4-0.2,0.8-0.6,0.9L39.9,117C39.5,117,39.2,116.8,39.1,116.4z M40.1,121.8c-0.1-0.4,0.2-0.8,0.6-0.9
	l72.6-14.2c0.4-0.1,0.8,0.2,0.9,0.6c0.1,0.4-0.2,0.8-0.6,0.9L41,122.4C40.6,122.5,40.2,122.2,40.1,121.8z M41.1,126.9
	c-0.1-0.4,0.2-0.8,0.6-0.9l72.6-14.2c0.4-0.1,0.8,0.2,0.9,0.6c0.1,0.4-0.2,0.8-0.6,0.9L42,127.5C41.6,127.6,41.2,127.3,41.1,126.9z
	 M79.6,130.7l-35.6,7c-0.4,0.1-0.8-0.2-0.9-0.6l0,0c-0.1-0.4,0.2-0.8,0.6-0.9l35.6-7c0.4-0.1,0.8,0.2,0.9,0.6
	C80.3,130.3,80,130.7,79.6,130.7z M115.6,118.3L43,132.5c-0.4,0.1-0.8-0.2-0.9-0.6c-0.1-0.4,0.2-0.8,0.6-0.9l72.6-14.2
	c0.4-0.1,0.8,0.2,0.9,0.6C116.3,117.8,116,118.2,115.6,118.3z"/>
</svg>
