<?xml version="1.0" encoding="utf-8"?>
<!-- Generator: Adobe Illustrator 23.1.0, SVG Export Plug-In . SVG Version: 6.00 Build 0)  -->
<svg version="1.1" id="Camada_1" xmlns="http://www.w3.org/2000/svg" xmlns:xlink="http://www.w3.org/1999/xlink" x="0px" y="0px"
	 viewBox="0 0 343 344" style="enable-background:new 0 0 343 344;" xml:space="preserve">
<style type="text/css">
	.st0{fill:#FFFF00;}
	.st1{fill:#F7931E;}
	.st2{fill:#FADE14;}
	.st3{opacity:0.1091;fill:#F7931E;enable-background:new    ;}
	.st4{fill:none;}
	.st5{font-family:'ComicSansMS-BoldItalic';}
	.st6{font-size:118.6921px;}
	.st7{fill:none;stroke:#000000;stroke-width:6;stroke-miterlimit:10;}
</style>
<g>
	<g>
		<circle class="st0" cx="173.9" cy="176.5" r="154.1"/>
		<g>
			<path class="st1" d="M323,176.5c-0.3,62-39.6,119.1-98.2,140.2c-59,21.3-126.1,2.8-166.1-45.4c-39.9-48.1-44.8-118.5-12.5-172
				c32.2-53.3,96.1-81.5,157.2-69.1c60.4,12.3,107.9,61.9,117.7,122.7C322.4,160.7,322.9,168.6,323,176.5c0,6.4,10,6.5,10,0
				c-0.3-66.2-42.1-126.4-104.3-149.4C166.2,4,93.5,23.7,51.2,75.1C8.8,126.7,2.9,201.4,37.6,258.7c34.5,57,102.5,86.8,167.8,73.8
				c64.2-12.8,115.7-66.4,125.6-131.1c1.3-8.2,1.9-16.5,2-24.8C333,170.1,323,170.1,323,176.5z"/>
		</g>
	</g>
	<g>
		<circle class="st2" cx="173.6" cy="176.8" r="109.2"/>
		<g>
			<g>
				<path class="st3" d="M274.6,189.5c-0.3,4.8-0.5,9.5-1.3,14.2c-1,6-2.7,11.8-4.9,17.4c-0.8,2.2-1.7,4.4-2.8,6.5
					c-2.7,6.2-6.6,11.6-11.8,16.3c-3.3,6.1-7.6,11.2-12.9,15.3c-1.7,1.6-3.5,3-5.5,4.3c-4.6,3.4-9.6,6.7-14.8,9.1
					c-18.6,3.4-37.3,6.9-55.9,10.3c-2.5-0.3-4.9-0.6-7.4-1c-9.4-1.6-18.7-4.6-27.3-8.8c-9.4-4.5-17.9-10.6-25.5-17.7
					c-1.7-1.5-3.3-3.1-4.8-4.9c-4.1-4.1-7.4-8.8-10-14.1c-3.9-4.4-6.9-9.3-9.1-14.7c-1-2.1-1.9-4.2-2.6-6.4
					c-7.4-20.1-8.4-42.3-2.7-62.9c2.5-9,6.1-17.6,11-25.6c1.1-2,2.4-3.9,3.8-5.8c3.2-4.9,7.2-9.2,11.9-12.8
					c4.4-5.6,9.6-10.2,15.6-13.9c2-1.2,3.9-2.4,5.9-3.6c17.6-10,38.1-14.5,58.3-13.1c9.8,0.7,19.4,2.7,28.6,6.1
					c5.6,2,10.9,4.5,16.1,7.5c11.4,10.8,22.9,21.5,34.3,32.3c1.2,2,2.4,3.9,3.6,5.9c4.6,8,8.1,16.7,10.5,25.6
					c1.5,5.7,2.4,11.6,2.9,17.4c0.5,6.1,0.3,12-0.1,18.2c-0.1,1.5,1,1.5,1.7,0.5c0.5-1.3,1-2.6,1.3-4c0.4-1.3,0.7-2.7,0.9-4.1
					c0.2-5.1,0.1-10.3-0.5-15.4c-0.3-3.8-0.9-7.5-1.8-11.1c-1.8-8.4-4.4-16.6-8.2-24.4c-3.4-6.8-7.3-13.2-11.9-19.3
					c-8.6-11.5-20-20.9-32.3-28.1c-13.8-8-29.6-12.4-45.4-13.3c-16-1-32,1.6-46.8,7.7c-13,5.4-24.7,13.4-34.8,23.3
					c-18.4,18.1-29.5,43.5-31.1,69.1c-1.6,26.2,6.6,52.5,22.8,73.3c8.7,11.1,19.6,20.6,31.9,27.5c13.1,7.3,27.6,11.5,42.5,13
					c16.2,1.5,32.9-1.2,47.9-7.2c12.6-5,24.7-12.5,34.4-22.2c6.9-6.9,13-14.4,18-22.9c3.7-6.4,6.6-13.2,8.9-20.3
					c3.1-9.6,4.1-19.6,4.9-29.6c0.1-1.8-1-1.5-2-0.3c-0.8,1.1-1.5,2.3-2.2,3.5C275.3,187.3,274.7,188.3,274.6,189.5z"/>
				<path class="st3" d="M271.7,186.3c-0.4,7.5-1,15-3,22.3c-1.6,5.8-3.6,11.4-6.2,16.8c-2.5,5.2-5.4,10.3-8.9,15
					c-4.2,5.6-8.9,10.5-13.9,15.3c0.3-0.3,0.6-0.5,0.9-0.8c-2.1,1.7-4.1,3.5-6.2,5.2c0.3-0.2,0.6-0.5,0.9-0.7
					c-2.2,1.6-4.3,3.2-6.5,4.8c0.3-0.2,0.6-0.4,1-0.7c-2.3,1.5-4.5,2.9-6.8,4.3c0.3-0.2,0.7-0.4,1-0.6c-2.4,1.3-4.7,2.6-7.1,3.9
					c0.3-0.2,0.7-0.4,1-0.5c-4.2,2-8.4,3.9-12.8,5.4c-5.5,2-11.3,3.3-17,4.3c-10.8,1.8-21.8,1.9-32.6,0.2
					c-19.8-3-38.4-12.1-53.2-25.5c-15.5-14-26.6-32.5-31.5-52.9c-5.1-21.2-3.5-43.8,4.9-64c7.6-18.3,20.4-34.2,36.6-45.5
					c4.8-3.3,9.8-6.2,15-8.7c8.6-4.4,18-6.3,28.2-5.6c9.5-3.9,19.1-5.1,28.7-3.6c10.8,1.3,21.4,4.3,31.3,8.9
					c18,8.5,33.3,22.3,43.8,39.2c5.6,9,9.9,18.8,12.5,29c1.5,5.8,2.4,11.7,2.9,17.7c0.5,6.2,0.3,12.2-0.1,18.5
					c0.1,0.6,0.4,0.8,0.9,0.5c0.9-0.7,1.6-1.6,2.1-2.6c1.1-1.8,2.2-3.7,3.2-5.6c0.7-1,1-2,1.2-3.2c0-5.2-0.4-10.3-1.1-15.4
					c-0.5-3.8-1.2-7.5-2.3-11.1c-1.8-7.2-4.3-14.1-7.6-20.8c-6.8-14.1-16.8-27-29-36.8c-11.5-9.2-24.5-16.2-38.6-20.3
					c-14.8-4.3-30.1-5.2-45.3-3.2c-21.6,2.8-42.3,12.8-58.3,27.4c-23.2,21-36.3,51.5-35.6,82.8c0.7,31.2,14.9,61,38.8,81.1
					c23.4,19.6,54.5,28.5,84.7,24.4c19.8-2.7,38.7-11,54.2-23.6c11.3-9.3,20.5-20.8,27.4-33.7c3.5-6.5,6.1-13.5,8.2-20.6
					c2.8-9.5,3.9-19.5,4.8-29.4c0.2-2.4-3.7,1.3-3.7,1.2c-1.7,1.5-3.4,3-5,4.6C272.9,184.3,272.2,185.2,271.7,186.3z"/>
				<path class="st3" d="M271.2,182c0.1,5-0.2,9.9-1.1,14.7c-5,23.8-16,42.4-33.1,56c-6.2,5.1-13,9.5-20.2,13.1
					C204,272,190,275.3,175.8,276c-30.5,1.5-61.1-11.9-81.5-35.2c-9.9-11.3-17.2-24.7-21.4-39.1c-7.6-25.9-4.8-54.5,8.7-78.5
					C92.7,102,113.8,93,144.7,96.3c22.2-22,44.3-28.1,66.2-18.4c7.6,3.1,14.7,7.2,21.3,12c11.9,8.7,22,19.9,29.3,32.8
					c5.8,10.3,9.5,21,11.7,32.4c1.8,9.4,1.8,18.9,1.2,28.4c0,0.6,0.8,1.3,1.4,1.1c0.6-0.2,1.6-1.4,1.7-2c0.3-4.9,0.3-9.8,0-14.7
					c-0.3-4.8-1-9.5-1.9-14.2c-1.8-9-4.8-17.8-8.8-26c-5.1-10.4-11.9-20-20-28.3c-11.8-12-26.5-21.2-42.6-26.4
					c-9.5-3-19.3-4.6-29.3-5c-42.3-1.6-83.5,24.6-100.3,63.4c-4.2,9.7-7.1,19.8-8.4,30.3c-2.1,17.5,0.1,35.6,6.5,52
					c9.8,25,29,45.9,53.1,57.6c31,15,68.4,13.7,98.2-3.5c14-8.1,26.2-19.5,35.1-33c5.2-7.9,9.2-16.4,12-25.4
					c1.4-4.7,2.5-9.4,3.2-14.3c0.8-4.7,1.2-9.4,1-14.2C275.5,178.8,271.3,180.7,271.2,182z"/>
				<path class="st3" d="M275.8,184.1c-0.4,7.5-1,14.9-2.9,22.2c-0.7,2.3-1.4,4.6-2,7c-0.8,2.2-1.7,4.5-2.5,6.7
					c-23.9,8.1-47.9,16.2-71.8,24.3c-23.9,8.1-47.9,16.2-71.8,24.3c-2-1.2-4-2.4-6.1-3.6c-1.9-1.3-3.9-2.7-5.8-4
					c-5.5-4-11-8.9-15.5-14.1c-7.8-8.8-14-18.6-18.7-29.4c-5.3-12-7.8-25.3-8.1-38.4c-0.5-25.2,8.2-50.7,24.9-69.7
					c7.7-8.8,16.6-16.2,26.6-22.2c5.9-3.5,12.5-6.6,19.1-8.7c6.8-2.2,13.7-3.6,20.8-4.8c-0.4,0-0.8,0.1-1.2,0.1
					c2.8-0.3,5.6-0.5,8.4-0.8c-0.4,0-0.8,0-1.2,0c2.9-0.1,5.7-0.1,8.5-0.2c-0.4,0-0.8,0-1.2,0c2.9,0.1,5.8,0.3,8.6,0.4
					c-0.4,0-0.8-0.1-1.2-0.1c2.9,0.3,5.7,0.7,8.6,1c-0.4-0.1-0.8-0.1-1.2-0.2c2.8,0.5,5.6,1.1,8.4,1.6c-0.4-0.1-0.8-0.2-1.2-0.3
					c2.7,0.7,5.4,1.4,8.1,2.2c-0.4-0.1-0.8-0.2-1.2-0.4c2.6,0.9,5.3,1.8,7.9,2.7c-0.4-0.1-0.8-0.3-1.1-0.4c2.5,1.1,5.1,2.1,7.6,3.2
					c-0.4-0.2-0.7-0.3-1.1-0.5c2.5,1.2,4.9,2.5,7.4,3.7c-0.4-0.2-0.7-0.4-1.1-0.6c2.4,1.4,4.7,2.8,7,4.1c-0.3-0.2-0.7-0.4-1-0.6
					c2.2,1.5,4.5,3.1,6.7,4.6c-0.3-0.2-0.6-0.5-1-0.7c2.1,1.7,4.3,3.3,6.4,5c-0.3-0.2-0.6-0.5-0.9-0.7c2,1.8,4,3.6,6,5.4
					c-0.3-0.3-0.6-0.5-0.9-0.8c1.9,1.9,3.8,3.9,5.6,5.8c-0.3-0.3-0.5-0.6-0.8-0.8c4.5,5.3,8.8,10.6,12.4,16.6
					c3.6,5.9,6.7,12.3,9,18.9c2.3,6.7,4.2,13.6,5.1,20.6c0.9,7.3,1,14.5,0.8,21.9c0,0.4-0.2,1.4,0.4,1.6c0.9,0.3,1.5-1.4,1.8-1.9
					c0.8-1.7,1.4-3.4,2-5.2c0.5-1.5,1.1-3,1.1-4.5c-0.3-4.9-0.6-9.6-1.3-14.4c-0.4-2.9-1-5.7-1.6-8.6c-1.5-7.2-4.3-14.6-7.4-21.3
					c-3.1-6.7-7-13.1-11.4-19c-8.8-11.8-19.9-21.8-32.6-29.3c-12.8-7.5-27.5-12.7-42.3-14.3c-15.3-1.7-31.2-0.6-45.9,4.1
					c-13.1,4.2-25.1,10.5-35.9,19c-23.5,18.7-38.5,46.6-41.1,76.5c-1.2,14.3,0.4,28.4,4.4,42.1c4.2,14.3,11.9,27.4,21.4,38.8
					c19.2,23,48.4,37,78.2,38.5c30.1,1.5,60.9-9.8,82.3-31.2c9.6-9.6,17.4-20.5,23.1-32.9c3.1-6.8,5.5-13.9,7.2-21.2
					c2-8.5,3-17.1,3.8-25.8c0.2-2.3-3.4,1.4-3.2,1.3c-1.4,1.4-2.6,2.9-3.9,4.5C276.6,182.2,276,183.1,275.8,184.1z"/>
				<path class="st3" d="M273.2,182c0.3,4.9,0,9.8-1,14.6c-0.8,4.8-2,9.4-3.5,14c-3,8.7-7.4,17-12.8,24.4
					c-9.3,12.8-21.8,23.3-36,30.4c-25.6,12.8-57.3,14.3-83.7,3.1c-15.1-6.4-28.6-16-39.3-28.5c-6-7-11.1-14.9-15.1-23.3
					c-4.2-8.3-6.4-17.3-6.4-26.8c-3.3-9.1-4.3-18.4-3.2-27.8c1.8-18.9,8.9-37,20.5-52.1c10.9-14.2,25.8-25.4,42.2-32.4
					c41.6-17.2,83.5-4.2,125.8,39c2.5,3.9,4.8,7.9,6.8,12.1c4,8.4,6.8,17.3,8.4,26.5c0.8,4.7,1.3,9.3,1.5,14.1
					c0.2,4.8,0,9.6-0.5,14.4c-0.1,1.3,2.2,1.8,2.3,0.3c0.5-4.9,0.6-9.9,0.5-14.8c-0.2-4.9-0.7-9.7-1.5-14.5
					c-1.7-9.5-4.7-18.7-8.9-27.4c-5.1-10.6-12.1-20.3-20.3-28.7c-11.8-12.1-27-21.4-43.1-26.3c-19.9-6-41.3-6.3-61.3-0.6
					c-25.1,7.3-47.1,23.8-61.1,45.9c-15.7,24.7-20.6,55.4-13.4,83.7c8.6,33.8,34,61.8,66.8,73.6c28.3,10.1,60.1,7.5,86.4-7
					c14.1-7.7,26.4-18.7,35.6-31.9c5.4-7.7,9.7-16.1,12.6-25.1c1.5-4.6,2.7-9.4,3.5-14.2c1.1-4.6,1.3-9.3,0.6-14
					c0-0.5-0.4-1.4-1-1.5C274.2,181,273.2,181.5,273.2,182z"/>
				<path class="st3" d="M268.7,185c0,5-0.5,10-1.4,15c-0.8,4.8-2.1,9.5-3.7,14.1c-3.1,8.9-7.6,17.2-13.3,24.7
					c-15.1,20.2-37.8,34.2-62.7,38.8c-16.6,3.1-34,2.1-50.1-3.1c-8.9-2.9-17.4-7-25.1-12.1c-13.4-9.1-24-20.5-31.9-34
					c-12.6-20.4-9.5-43.1,9.4-68.1c-7.5-30.4-1.5-52.5,18.1-66.2c3.7-2.8,7.6-5.3,11.6-7.5c8-4.5,16.7-7.9,25.6-10.1
					c20.8-5.1,43.2-3.6,63,4.5c14.8,6,28.1,15.5,38.7,27.4c6,6.8,11.1,14.4,15.1,22.5c2,4.1,3.8,8.4,5.3,12.7
					c4.6,14.2,6.2,28.6,4.7,43c0.1,0.4,0.4,0.7,0.8,0.7c0.7-0.1,1.2-0.5,1.6-1.1c1-1,3.1-3,3.1-4.6c0.1-4.9,0-9.9-0.6-14.8
					c-0.5-4.8-1.4-9.5-2.5-14.1c-1.6-6.6-4-13.1-6.9-19.3c-5.8-12.5-14.1-23.8-24.2-33.2c-22.7-21.1-53.8-31.6-84.6-28.4
					c-28.7,3-55.1,18-72.8,40.6C75.4,126.2,68,143,65.5,160.2c-1.4,9.8-1.5,19.6-0.4,29.5c0.6,5.3,1.7,10.8,3.2,15.9
					c2.6,9.3,6.5,18.7,11.8,26.8c4.3,6.5,8.8,12.6,14.1,18.3c11.6,12.4,26.7,21.9,42.8,27.4c28.7,9.8,61.1,6.7,87.4-8.4
					c14.4-8.3,26.8-20,35.9-33.9c5.2-8,9.3-16.8,12.1-26c2.8-9.4,3.9-19.1,4.8-28.9c0.2-1.8-2.3-0.4-2.9-0.1
					c-1.3,0.7-2.6,1.5-3.9,2.4C269.6,183.6,269,184.2,268.7,185z"/>
				<path class="st3" d="M271.8,190.6c-0.1,9.6-1.7,19-4.8,28.2c-1.5,4.4-3.4,8.7-5.6,12.9c-3.2,6.1-7.2,11.8-11.6,17.1
					c-11.5,13.8-27.3,24.1-44.3,29.8c-61.4,20.7-105.5-12.1-125.7-54c-7.1-14.8-10.1-31.3-9.8-47.6c0.5-22.4,9.2-44.2,23.3-61.4
					c10.1-12.3,22.8-22.1,37.3-28.7c24-10.9,52.3-12,77.1-2.8c15.5,5.7,29.2,15.1,40.3,27.2c5.5,6,10.3,12.5,14.3,19.6
					c8,14.6,12.4,30,13.1,46.1c0.2,4.9,0.1,9.8-0.4,14.6c-0.1,1.5,0.7,1.9,1.7,0.7c0.7-1.3,1.4-2.7,1.9-4.1c0.6-1.4,1.1-2.8,1.5-4.3
					c0-5.6,0.1-10.7-0.5-16.2c-0.8-7.4-2.3-14.6-4.6-21.7c-5.2-16-14.2-30.3-25.9-42.2c-13.2-13.5-30.5-23.1-48.7-27.7
					c-9.5-2.4-19.4-3.4-29.2-3c-5,0.2-9.5,0.8-14.4,1.5c-4.4,0.6-9.5,2-13.7,3.4c-8.6,2.7-16.9,6.5-24.6,11.4
					c-13.7,8.6-25.1,20.1-33.9,33.6c-17.9,27.2-21.7,62.4-10.8,93c7.6,21.5,22.1,40.1,41.1,52.8c15.7,10.5,34,16.4,52.8,17.3
					c22.9,1.1,45.6-5.2,64.6-18c13.3-9,24.5-20.7,32.6-34.6c5-8.6,8.5-17.8,10.8-27.4c1.9-7.6,2.5-15.4,3.3-23.2
					c0-0.5-0.3-0.7-0.8-0.6c-0.9,0.4-1.5,1-2.1,1.8c-1.1,1.3-2.1,2.7-3.1,4.2C272.3,188.8,271.9,189.6,271.8,190.6z"/>
				<path class="st3" d="M276.7,183.9c0,5-0.5,9.9-1.4,14.8c-0.8,4.8-2,9.5-3.5,14.1c-2.2,6.6-5.3,13.2-9,19.1
					c-8.4,13.7-20.3,25.3-34.1,33.6c-14.1,8.4-30.2,13.4-46.5,14.4c-26.5,1.6-53-7-73.4-24.7c-25.3-21.9-38.6-55.5-35.4-88.8
					c1.6-16.7,7.4-33.2,16.9-47.1c3.9-5.8,8.3-11.2,13.3-16.1c6.6-6.6,14.1-11.9,22-16.7c-0.3,0.2-0.7,0.4-1,0.5
					c2.4-1.3,4.8-2.5,7.2-3.8c-0.4,0.2-0.7,0.3-1,0.5c2.5-1.1,4.9-2.2,7.4-3.3c-0.4,0.1-0.7,0.3-1.1,0.4c2.5-1,5.1-1.9,7.6-2.9
					c-0.4,0.1-0.7,0.3-1.1,0.4c2.6-0.8,5.2-1.6,7.8-2.4c-0.4,0.1-0.7,0.2-1.1,0.3c4.6-1.2,9.2-2.1,13.9-2.7
					c4.8-0.6,9.6-0.8,14.4-0.8c9.7,0.2,19.4,1.7,28.7,4.6c8.9,2.8,17.5,6.8,25.3,11.9c30.8,20.1,48.6,54.9,46.8,96
					c0,1.2,1.2,1.1,1.7,0.4c0.4-0.9,0.7-1.8,0.9-2.8c0.3-1,0.4-1.9,0.4-2.9c0.2-5.2,0-10.3-0.6-15.5c-0.4-2.5-0.7-5-1.1-7.5
					c-1.2-7.4-3.5-14.5-6.3-21.5c-5.4-13.6-14-25.9-24.3-36.2c-21-21.2-51.7-32.8-81.4-31c-8,0.5-15.8,1.7-23.5,3.8
					c-14.2,3.7-27.4,10.9-38.9,19.9c-24.2,19-39,48.7-40.3,79.3c-1.3,29.6,9.8,58.7,30.5,80c16.8,17.2,38.9,28.4,62.7,31.7
					c29.5,4,59.6-4.3,82.7-23c11.3-9.1,20.5-20.4,27.2-33.3c3.4-6.6,6-13.4,7.9-20.6c2.2-8.4,3.2-16.9,3.8-25.6
					c0.1-0.9-0.5-1.5-1.5-1c-0.6,0.6-1.2,1.3-1.7,2C277.5,182.3,277,183.1,276.7,183.9z"/>
				<path class="st3" d="M270.7,183c-0.1,2.5-0.2,5-0.3,7.5c-0.3,3.7-0.9,7.4-1.8,11c-1,4.8-2.4,9.3-4.2,13.9
					c-3.9,9.9-9.4,18.8-16.2,26.9c-14.1,16.9-34.6,28.5-56,33.1c-5.8,1.3-11.8,2.1-17.8,2.3c-2.4,0-4.9,0-7.3,0
					c-13.7-3.3-27.3-6.6-41-9.9c-9.4-4.5-18.1-10.5-25.7-17.5c-26.3-24.4-39.4-62.5-30.5-98.5c2.6-10.5,6.4-20.4,12-29.6
					c5.4-9,12.1-17.2,19.9-24.2c7.8-7,16.7-12.7,26.2-17c9.7-4.4,19.9-7.2,30.5-8.6c35-4.8,69.8,10.1,91.8,36.6
					c6.6,7.9,12,16.7,16,26.2c1.8,4.3,3.3,8.7,4.5,13.1c3.3,11.8,3.7,24,3.1,36.3c0.1,0.4,0.4,0.6,0.8,0.7c0.6-0.1,1.1-0.4,1.5-1
					c1-1,2.8-2.7,2.8-4.2c-0.1-7.5-0.4-14.7-1.7-22.1c-0.8-4.5-2-9-3.3-13.4c-4.9-15.6-13.5-30.3-24.9-42
					c-10.8-11.1-23.5-19.9-37.8-25.7c-10.4-4.2-21.3-6.6-32.5-7.5c-25.6-2.1-51.7,6.1-72,21.5c-20.9,15.9-35.6,39.3-40.4,65.2
					c-2.3,12.6-2.6,25.8-0.3,38.4c2.7,14.6,8.2,28.4,16.2,40.9c5.2,8,11.7,15.5,19,21.8c3.9,3.4,8,6.6,12.4,9.4
					c8.3,5.1,17,9.6,26.4,12.5c14.7,4.4,29.8,5.8,45,4.1c16.8-1.9,33.3-8.3,47.3-17.9c13.7-9.4,25.2-22,33.1-36.6
					c3.4-6.3,6.3-13.1,8.3-20c2.8-9.4,3.9-19,4.6-28.7c0.1-1.6-2-0.7-2.6-0.4c-1.2,0.6-2.4,1.3-3.5,2
					C271.6,181.8,271,182.3,270.7,183z"/>
				<path class="st3" d="M274.5,182c0,3.8-0.3,7.5-1,11.2c-0.3,2.5-0.7,4.9-1.3,7.3c-1.2,5.9-3,11.7-5.4,17.3
					c-4.5,10.6-11.2,20.8-19.3,29.1c-15.7,16-36,26.7-58.2,30.1c-22.9,3.5-46.7-0.7-66.9-12.2c-10-5.7-19.4-13.2-26.9-22
					c-3-3.5-5.8-7.2-8.4-11c-3.9-5.8-6.9-12-9.8-18.4c0.1,0.4,0.3,0.8,0.4,1.1c-0.9-2.6-1.9-5.1-2.9-7.7c0.1,0.4,0.2,0.8,0.4,1.2
					c-0.8-2.6-1.6-5.3-2.4-7.9c0.1,0.4,0.2,0.8,0.3,1.2c-0.6-2.7-1.2-5.4-1.8-8.1c0.1,0.4,0.1,0.8,0.2,1.2c-0.4-2.7-0.9-5.5-1.3-8.2
					c0.1,0.4,0.1,0.8,0.2,1.2c-0.3-2.8-0.5-5.6-0.8-8.4c0,0.4,0.1,0.8,0.1,1.2c-0.2-7.4,0-14.7,1.1-22c1-7.1,3-14.1,5.5-20.8
					c4.8-13,12.7-25,22.3-34.9c19.5-20.1,47.3-32.2,75.4-31.7c14.5,0.3,29.1,3.1,42.2,9.2c12.6,5.9,24.3,14,33.6,24.4
					c8.6,9.5,15.4,20.3,20.1,32.2c2.6,6.6,4.5,13.4,5.8,20.4c0.7,3.5,1.1,7.1,1.4,10.7c0.4,5.2,0.3,10.4-0.1,15.5
					c0.1,0.4,0.5,0.6,0.9,0.5c0.7-0.3,1.2-0.8,1.5-1.5c1-1.5,2.7-3.7,2.7-5.6c-0.2-5.4-0.3-9.6-1-15c-0.5-3.9-1.2-7.4-2.1-11.1
					c-3.1-12.9-8.6-25.5-16.3-36.4c-8.5-11.9-18.9-22.2-31.3-30.1c-12.6-8-26.8-13.2-41.5-15.6C157.9,63.3,123.8,74,99.8,96
					c-18.4,16.9-30.5,39.9-34.2,64.5c-3.7,25.2,1.7,51.5,15.1,73.2c16.2,26.2,43.4,44.7,73.7,50c31,5.5,63.5-3,87.8-23
					c11.3-9.3,20.4-20.7,27.3-33.5c8.2-15.3,11.4-32.4,12.8-49.6c0.1-1.8-2.4-0.2-2.8,0c-1.2,0.8-2.4,1.6-3.5,2.5
					C275.3,180.7,274.8,181.2,274.5,182z"/>
				<path class="st3" d="M276.3,186.1c0,5-0.5,9.9-1.3,14.8c-0.8,4.8-2,9.5-3.5,14.1c-2.4,6.7-5.3,13.1-9,19.1
					c-19.6,31.7-49.2,45.4-81.1,47.5c-9.7,0.6-19.7-0.2-29.1-2.5c-13.8-3.4-26.5-9.3-37.9-17.7c-12.9-9.4-23.6-22.3-30.8-36.5
					c-4-7.4-6.3-15.3-6.9-23.8c-3.1-8.1-4.5-16.4-4.1-24.8c0.2-8.7,1.5-17.2,3.9-25.5c4.2-14.8,11.6-28.5,21.8-40
					c10.8-12.2,24.4-21.9,39.5-27.9c6.5-2.6,13.4-4.6,20.4-5.9c4.7-0.9,9.5-1.4,14.3-1.6c7.4-0.3,14.8,0.2,22.1,1.4
					c-0.4-0.1-0.7-0.1-1.1-0.2c2.8,0.6,5.5,1.1,8.3,1.7c-0.4-0.1-0.7-0.2-1.1-0.3c9.3,2.2,18.1,5.7,26.4,10.3
					c4,2.3,7.9,4.8,11.6,7.6c7.3,5.5,13.9,12,19.5,19.3c5.6,7.3,10.3,15.3,13.8,23.8c6.5,15.8,8.3,31.5,7.5,48.9
					c-0.1,1.4,1.2,1.3,1.8,0.4c0.4-1.2,0.8-2.3,1-3.6c0.3-1.2,0.5-2.4,0.5-3.7c0.2-5.2,0-10.3-0.6-15.5c-0.4-2.5-0.7-5-1.1-7.5
					c-1.3-7.4-3.5-14.5-6.3-21.4c-5.8-14.6-15.3-27.9-26.8-38.6c-14.7-13.6-32.9-22.9-52.6-26.7c-30.4-5.9-63.3,1.7-87.5,21.3
					c-11.1,9-20.8,20-27.5,32.6c-6.9,13-11.4,27.1-12.6,41.7c-2.1,24.2,4.2,48.7,17.5,69c7.8,11.8,17.9,22.1,29.6,30.1
					c12.1,8.2,25.6,13.8,39.9,16.7c14.8,3.1,30.4,2.4,45.1-0.8c14.3-3.2,27.7-9.8,39.4-18.4c12.7-9.3,23.1-21.8,30.3-35.7
					c3.4-6.6,6.1-13.5,8-20.7c2.2-8.5,3.2-17,3.8-25.8c0.1-1.1-0.6-1.7-1.5-0.9c-0.7,0.8-1.3,1.7-1.8,2.7
					C277.2,184.1,276.7,185.1,276.3,186.1z"/>
				<path class="st3" d="M268.6,187.2c0,5-0.5,10-1.4,15c-0.8,4.8-2.1,9.5-3.7,14.1c-3.1,8.8-7.6,17.2-13.2,24.7
					c-15,20.2-37.7,34-62.3,38.6c-9.3,1.7-19.3,2.4-28.7,1.3c-13.1-4.1-26.3-8.2-39.4-12.3c-4.1-2.3-8-4.8-11.7-7.7
					c-34.3-26-45.5-66.5-33.7-121.5c1.8-4.4,3.9-8.6,6.2-12.6c4.6-8,10.4-15.3,16.9-21.7c16.4-16.1,38.2-26.6,61.1-29.1
					c16.6-1.9,33.6,0.3,49.2,6.4c23.8,9.4,43.5,27.7,54.6,50.9c4.1,8.5,7,17.5,8.6,26.7c0.8,4.7,1.3,9.5,1.5,14.3
					c0.2,4.9,0,9.9-0.5,14.8c0.1,0.5,0.4,0.7,0.9,0.6c0.8-0.4,1.4-0.9,1.9-1.7c1-1.2,1.9-2.5,2.7-3.9c0.6-0.7,0.9-1.5,1-2.3
					c0.1-5-0.1-10-0.6-15c-0.5-4.8-1.4-9.6-2.6-14.3c-2.1-8.1-5.1-15.8-9-23.1c-6.9-13.1-16.6-24.9-28.3-33.9
					c-11.1-8.6-23.6-15.1-37.2-18.9c-16.3-4.6-33.8-5.2-50.5-1.8c-27.6,5.5-52.5,22.1-68.2,45.5c-13.2,19.8-19.2,43.6-17.1,67.2
					c1.6,18.6,8.1,36.5,18.8,51.8c14.3,20.5,35.8,35.6,59.9,42.1c29.4,7.9,61.8,2.7,87-14.3c12-8.1,22.1-18.3,30.1-30.4
					c5.4-8,9.4-17,12.2-26.3c2.8-9.5,4-19.2,4.8-29c0.2-2-3,0.3-3.2,0.5c-1.5,1.1-2.9,2.2-4.3,3.4
					C269.7,185.6,269.1,186.3,268.6,187.2z"/>
			</g>
		</g>
	</g>
	<rect x="127.6" y="119.5" class="st4" width="92.3" height="114.6"/>
	<text transform="matrix(1 0 0 1 127.6139 211.8104)" class="st1 st5 st6">$</text>
	<text transform="matrix(1 0 0 1 127.6139 211.8104)" class="st7 st5 st6">$</text>
</g>
</svg>
